<svg width="372" height="383" viewBox="0 0 372 383" fill="none" xmlns="http://www.w3.org/2000/svg">
<path d="M90.7454 109.59C49.2354 156.17 17.2954 215.51 51.6454 276.51C76.9254 321.4 131.075 348.51 182.365 336.35C248.135 320.76 284.655 243.88 296.135 183.18C297.105 182.93 297.255 183.58 297.815 184.01C300.555 186.12 305.125 191.55 307.625 194.36C313.705 201.2 319.305 208.49 324.965 215.67C325.525 216.81 325.325 217.97 325.135 219.15C323.565 228.9 316.535 245.79 312.475 255.22C295.395 294.93 267.635 339.09 230.495 362.59C126.305 428.49 -29.3946 320.94 4.81544 198.73C18.6854 149.17 53.7854 104.64 88.7354 68.0998C89.6254 67.5598 90.7754 67.7798 91.7554 67.8698C95.8854 68.2598 103.105 70.2298 107.355 71.3398C109.215 71.8198 124.045 76.1798 124.045 77.0598C112.125 87.2898 101.195 97.8698 90.7554 109.58L90.7454 109.59Z" fill="white"/>
<path d="M161.936 97.1702C162.626 97.7502 165.896 100.73 165.926 101.13C162.916 107.25 162.576 114.83 165.966 120.85C166.656 122.07 170.616 126.28 170.526 126.82C153.916 142.75 138.156 160.62 125.706 180.08C109.476 205.47 94.8857 249.11 127.796 268.18C163.736 289.02 195.916 259.05 212.806 229.57C224.566 209.03 234.936 186.42 239.636 163.14C245.516 162.17 251.066 158.9 254.456 154.02C261.906 156.4 268.626 160.78 275.276 164.81L275.456 165.53C268.186 196.89 255.306 228.71 238.076 255.93C208.946 301.95 162.786 327.81 110.996 296.19C67.5757 269.68 57.3757 225.44 78.7357 180.18C94.8657 145.99 121.956 115.04 149.306 89.3702C150.056 88.8802 150.666 89.2202 151.376 89.5302C153.106 90.2902 160.156 95.6802 161.956 97.1802L161.936 97.1702Z" fill="white"/>
<path d="M351.946 203.66C347.996 207.79 342.836 212.71 337.046 213.74C316.716 185.42 292.896 158.76 260.256 144.53L266.546 129.55C281.666 126.4 308.616 122.91 304.746 101.45L305.376 100.3C328.616 109.58 351.776 126.52 365.746 147.5C379.236 167.76 366.716 188.22 351.936 203.67L351.946 203.66Z" fill="white"/>
<path d="M289.645 88.3099C314.995 114.23 284.265 121.55 262.005 123.33C259.765 130.6 257.085 138.51 253.205 145.05C236.305 173.5 218.645 144.67 210.955 126.87C206.725 126.69 202.585 127.33 198.325 127.16C192.195 126.92 177.915 124.92 173.345 120.75C160.165 108.73 183.695 88.9999 191.225 80.3199C188.195 70.6599 182.325 55.3299 185.415 45.3899C191.065 27.2199 219.895 43.3499 230.275 48.7499C239.485 42.6099 256.135 27.0999 267.915 32.4199C280.615 38.1499 274.945 63.8399 273.785 74.6999C279.395 78.9299 284.735 83.2599 289.645 88.2899V88.3099ZM269.145 74.4599C270.395 65.6099 272.195 56.3899 271.455 47.3899C271.275 45.1599 269.595 37.0199 266.695 36.9999C265.275 37.3899 264.265 39.2199 263.385 40.4299C259.665 45.5099 255.075 52.7799 252.195 58.3699C250.385 61.8899 245.825 69.8699 248.785 73.3999C250.585 76.6799 268.605 75.3499 269.145 74.4599ZM211.255 59.6599C206.835 55.5599 201.655 51.0899 196.855 47.4399C195.795 46.6399 191.705 43.1399 190.775 43.7699C186.625 54.8899 191.755 68.6699 195.775 79.3099C200.025 79.8699 220.705 78.7999 222.725 75.9799C223.135 75.3999 223.265 74.9599 223.305 74.2499C223.495 70.6299 214.085 62.2899 211.245 59.6499L211.255 59.6599ZM212.475 122.01C215.195 116.25 219.075 111.03 221.785 105.27C223.155 102.35 227.065 95.2199 223.565 92.9799C221.555 91.6899 215.385 93.9499 212.865 94.6799C199.505 98.5999 185.825 106.1 174.515 114.09C173.305 118.28 186.745 121.55 189.495 121.98C193.065 122.53 210.525 123.41 212.475 122.01ZM294.385 104.28C288.435 102.5 282.585 100.33 276.515 98.8899C267.705 96.8099 250.605 92.7899 243.495 99.5199C236.385 106.25 236.355 128.11 236.685 137.56C236.755 139.63 237.605 151.13 238.075 151.85C240.465 155.49 247.255 146.48 248.365 144.71C252.995 137.36 256.305 127.87 258.045 119.38C267.465 118.31 277.175 117.71 286.015 114.01C290.125 112.29 295.045 109.44 294.375 104.28H294.385Z" fill="white"/>
<path d="M191.865 30.8798L191.505 31.9898C188.515 32.6398 184.765 35.0698 182.925 37.4698C174.195 48.8698 180.985 66.3298 184.035 78.7298L171.975 91.8998C155.165 77.8198 134.725 67.2998 113.645 61.1398C104.165 58.3698 94.3454 56.9498 84.7754 54.5998C84.5254 49.8898 85.1254 45.5998 86.3454 41.0798C89.8754 28.0298 105.125 4.2598 118.885 0.789805C137.965 -4.0102 170.595 14.1598 185.405 25.8398C187.455 27.4598 189.465 29.9098 191.865 30.8798Z" fill="white"/>
<path d="M102.046 110.5C112.796 108.92 115.316 126.88 103.386 127.41C92.4956 127.9 91.3756 112.07 102.046 110.5Z" fill="white"/>
<path d="M61.6356 252.99C53.8356 260.75 41.4956 248.7 49.7456 240.84C57.8556 233.11 69.4556 245.2 61.6356 252.99Z" fill="white"/>
<path d="M58.0956 182.4C57.4856 182.03 55.8556 179.78 55.5656 179.08C51.1056 168.51 65.7856 162.65 70.4756 170.9C75.1656 179.15 65.9056 187.16 58.0956 182.4Z" fill="white"/>
<path d="M269.656 213.53C280.206 212.07 283.316 228.86 272.256 230.18C260.266 231.61 258.796 215.03 269.656 213.53Z" fill="white"/>
<path d="M234.876 276.83C247.756 274.17 249.436 293.26 237.556 293.39C226.556 293.51 226.256 278.61 234.876 276.83Z" fill="white"/>
<path d="M185.516 317.2C186.116 317.83 186.956 319.49 187.146 320.33C189.876 332.76 172.696 334.87 170.706 324.44C169.066 315.85 179.946 311.33 185.516 317.2Z" fill="white"/>
<path d="M93.9756 312.9C89.6656 309.11 90.8656 299.93 96.9956 298.66C110.826 295.81 111.916 314.83 99.6756 314.82C97.6556 314.82 95.5156 314.25 93.9856 312.9H93.9756Z" fill="white"/>
</svg>
